<svg width="21" height="22" viewBox="0 0 21 22" fill="none" xmlns="http://www.w3.org/2000/svg">
<g clip-path="url(#clip0_456_6219)">
<path d="M9.33135 18.1041H5.21069C3.12713 18.1041 1.42954 16.3665 1.42954 14.2338V12.1413C1.42954 10.0086 3.12713 8.27103 5.21069 8.27103H9.33135C10.5214 8.27103 11.615 8.82707 12.337 9.79282C12.5764 10.1147 13.0231 10.1733 13.3376 9.93182C13.6521 9.68673 13.7129 9.22581 13.4735 8.90755C12.6729 7.83206 11.5328 7.13701 10.2677 6.90289C10.9146 6.16761 11.3148 5.20186 11.3148 4.13735C11.3113 1.85467 9.49932 0 7.26923 0C5.03914 0 3.23077 1.85467 3.23077 4.13735C3.23077 5.20186 3.62747 6.16761 4.27434 6.89923C1.84769 7.35284 0 9.52943 0 12.1413V14.2338C0 17.1749 2.3373 19.5673 5.21069 19.5673H9.33135C9.72447 19.5673 10.0461 19.2381 10.0461 18.8357C10.0461 18.4333 9.72447 18.1041 9.33135 18.1041ZM7.26923 1.46325C8.7095 1.46325 9.88172 2.66312 9.88172 4.13735C9.88172 5.61157 8.7095 6.81144 7.26923 6.81144C5.82897 6.81144 4.65674 5.61157 4.65674 4.13735C4.65674 2.66312 5.82897 1.46325 7.26923 1.46325Z" fill="#FFD13D"/>
<path d="M21 13.4473C20.9893 13.0778 20.7105 12.7779 20.3531 12.7449C17.7371 12.4925 16.1288 10.5647 15.7 9.97938L15.6428 9.90256C15.5105 9.71234 15.2925 9.59528 15.0638 9.59528C14.8351 9.59528 14.6171 9.70868 14.4848 9.8989L14.4277 9.97938C13.9988 10.5647 12.3906 12.4925 9.77449 12.7449C9.41711 12.7779 9.13835 13.0815 9.12762 13.4473C9.12048 13.6558 9.02756 18.5906 14.5742 21.8244L14.7171 21.9085C14.8244 21.9707 14.9459 22 15.0638 22C15.1817 22 15.3033 21.9707 15.4105 21.9085L15.557 21.8244C21.1036 18.5906 21.0107 13.6558 21.0036 13.4473H21ZM15.0602 20.427C11.5007 18.2577 10.7466 15.3495 10.5893 14.1021C12.7551 13.6814 14.2668 12.3535 15.0602 11.4756C15.8536 12.3535 17.3618 13.6814 19.5311 14.1021C19.3739 15.3532 18.6162 18.2577 15.0602 20.427Z" fill="#FFD13D"/>
</g>
<defs>
<clipPath id="clip0_456_6219">
<rect width="21" height="22" fill="white"/>
</clipPath>
</defs>
</svg>
