<svg width="20" height="20" viewBox="0 0 20 20" fill="none" xmlns="http://www.w3.org/2000/svg">
<path fill-rule="evenodd" clip-rule="evenodd" d="M1.06326 4.23179H4.94418C5.35885 5.22063 6.33706 5.92238 7.48538 5.92238C8.63371 5.92238 9.61191 5.22063 10.0266 4.23179H18.9261C19.5109 4.23179 19.9894 3.75332 19.9894 3.16853C19.9894 2.58373 19.5109 2.10526 18.9261 2.10526H10.0266C9.61191 1.11643 8.63371 0.414673 7.48538 0.414673C6.33706 0.414673 5.35885 1.11643 4.94418 2.10526H1.06326C0.478469 2.10526 0 2.58373 0 3.16853C0 3.75332 0.478469 4.23179 1.06326 4.23179ZM18.9261 8.93142H15.8214C15.4067 7.94258 14.4285 7.24083 13.2802 7.24083C12.1318 7.24083 11.1536 7.94258 10.739 8.93142H1.06326C0.478469 8.93142 0 9.40989 0 9.99469C0 10.5795 0.478469 11.0579 1.06326 11.0579H10.7496C11.1643 12.0468 12.1425 12.7485 13.2908 12.7485C14.4391 12.7485 15.4173 12.0468 15.832 11.0579H18.9367C19.5215 11.0579 20 10.5795 20 9.99469C20 9.40989 19.5215 8.93142 18.9367 8.93142H18.9261ZM10.0266 15.7682H18.9261C19.5109 15.7682 19.9894 16.2467 19.9894 16.8315C19.9894 17.4163 19.5109 17.8947 18.9261 17.8947H10.0266C9.61191 18.8836 8.63371 19.5853 7.48538 19.5853C6.33706 19.5853 5.35885 18.8836 4.94418 17.8947H1.06326C0.478469 17.8947 0 17.4163 0 16.8315C0 16.2467 0.478469 15.7682 1.06326 15.7682H4.94418C5.35885 14.7794 6.33706 14.0776 7.48538 14.0776C8.63371 14.0776 9.61191 14.7794 10.0266 15.7682Z" fill="#F7CC45"/>
</svg>
