<svg width="153" height="21" viewBox="0 0 153 21" fill="none" xmlns="http://www.w3.org/2000/svg">
<g clip-path="url(#clip0_486_3692)">
<path d="M63.785 2.85571V6.43609C65.5688 7.50919 66.7639 9.44835 66.7639 11.6627C66.7639 15.0335 64.0035 17.7756 60.6134 17.7756C57.2233 17.7756 54.4577 15.0335 54.4577 11.6627C54.4577 9.44835 55.658 7.50919 57.4392 6.43609V2.85571C53.7175 4.13839 51.0393 7.61019 51.0393 11.6855C51.0393 16.8212 55.3341 21 60.6134 21C65.8926 21 70.1823 16.8212 70.1823 11.6855C70.1823 7.61272 67.5067 4.13839 63.785 2.85571Z" fill="white"/>
<path d="M62.3767 9.40796H58.8555V0H62.3767V9.40796Z" fill="#F4312A"/>
<path d="M28.5345 20.7121H20.4563V2.61331H23.8747V17.4903H28.5345V20.7121Z" fill="white"/>
<path d="M39.1523 21C33.9373 21 29.6938 16.8288 29.6938 11.7082C29.6938 6.58758 33.9887 2.32547 39.2653 2.32547C42.3496 2.32547 45.0329 3.66874 47.0197 6.20884L47.4464 6.75171L44.925 9.06456L44.4161 8.3601C43.0538 6.47144 41.3626 5.55236 39.2448 5.55236C35.8624 5.55236 33.1122 8.32223 33.1122 11.7284C33.1122 13.2812 33.7317 14.7583 34.8651 15.8895C36.0449 17.0484 37.6795 17.7756 39.1111 17.7756C41.4012 17.7756 43.8378 16.3213 44.2927 14.0892H39.3502V10.8623H47.909L47.9218 11.6047C47.9681 14.0463 47.6597 16.0637 45.989 17.965C44.3184 19.8663 41.7662 21 39.1548 21H39.1523Z" fill="white"/>
<path d="M104.438 21C99.1615 21 94.8667 16.8212 94.8667 11.6855C94.8667 6.54971 99.1641 2.32547 104.438 2.32547C109.712 2.32547 114.012 6.52446 114.012 11.6855C114.012 16.8465 109.717 21 104.438 21ZM104.438 5.54983C101.046 5.54983 98.2877 8.29193 98.2877 11.6602C98.2877 15.0285 101.048 17.7731 104.438 17.7731C107.828 17.7731 110.591 15.031 110.591 11.6602C110.591 8.2894 107.831 5.54983 104.438 5.54983Z" fill="white"/>
<path d="M146.906 20.7122H143.488V13.0313L137.396 2.61081H141.342L145.197 9.2388L149.052 2.61081H152.997L146.903 13.0313V20.7122H146.906Z" fill="white"/>
<path d="M9.82595 2.61331H8.11932L0 20.7121H3.74481L5.78042 16.0031H11.9772L13.9743 20.7121H17.7319L9.82595 2.61331ZM7.19918 12.7813L8.92123 8.82721L10.5996 12.7813H7.19918Z" fill="white"/>
<path d="M90.8238 20.6869V2.61331H87.4028V14.3341L76.0116 2.61331H74.2305V20.7121H77.6489V9.05446L88.9681 20.6869H90.8238Z" fill="white"/>
<path d="M133.842 2.61331H132.099L126.863 14.4528L121.646 2.61331H119.906L116.367 20.7121H119.86L121.708 11.1704L126.038 20.6869H127.681L132.04 11.1628L133.89 20.7121H137.378L133.842 2.61331Z" fill="white"/>
</g>
<defs>
<clipPath id="clip0_486_3692">
<rect width="153" height="21" fill="white"/>
</clipPath>
</defs>
</svg>
