<svg width="17" height="20" viewBox="0 0 17 20" fill="none" xmlns="http://www.w3.org/2000/svg">
<path d="M8.25 19.75C9.35 19.75 10.25 18.85 10.25 17.75H6.25C6.25 18.85 7.15 19.75 8.25 19.75ZM14.25 13.75V8.75C14.25 5.68 12.62 3.11 9.75 2.43V1.75C9.75 0.92 9.08 0.25 8.25 0.25C7.42 0.25 6.75 0.92 6.75 1.75V2.43C3.89 3.11 2.25 5.67 2.25 8.75V13.75L0.25 15.75V16.75H16.25V15.75L14.25 13.75ZM12.25 14.75H4.25V8.75C4.25 6.27 5.76 4.25 8.25 4.25C10.74 4.25 12.25 6.27 12.25 8.75V14.75Z" fill="#8C8C8C"/>
</svg>
