<svg width="81" height="13" viewBox="0 0 81 13" fill="none" xmlns="http://www.w3.org/2000/svg">
<path d="M2.268 3.372C2.5 3.052 2.816 2.792 3.216 2.592C3.624 2.384 4.076 2.28 4.572 2.28C5.156 2.28 5.684 2.42 6.156 2.7C6.628 2.98 7 3.38 7.272 3.9C7.544 4.412 7.68 5 7.68 5.664C7.68 6.328 7.544 6.924 7.272 7.452C7 7.972 6.624 8.38 6.144 8.676C5.672 8.964 5.148 9.108 4.572 9.108C4.06 9.108 3.604 9.008 3.204 8.808C2.812 8.608 2.5 8.352 2.268 8.04V9H0.9V0.12H2.268V3.372ZM6.288 5.664C6.288 5.208 6.192 4.816 6 4.488C5.816 4.152 5.568 3.9 5.256 3.732C4.952 3.556 4.624 3.468 4.272 3.468C3.928 3.468 3.6 3.556 3.288 3.732C2.984 3.908 2.736 4.164 2.544 4.5C2.36 4.836 2.268 5.232 2.268 5.688C2.268 6.144 2.36 6.544 2.544 6.888C2.736 7.224 2.984 7.48 3.288 7.656C3.6 7.832 3.928 7.92 4.272 7.92C4.624 7.92 4.952 7.832 5.256 7.656C5.568 7.472 5.816 7.208 6 6.864C6.192 6.52 6.288 6.12 6.288 5.664ZM14.9848 2.388L10.9288 12.108H9.51281L10.8568 8.892L8.25281 2.388H9.77681L11.6368 7.428L13.5688 2.388H14.9848ZM24.1624 7.296H20.6704L20.0704 9H18.6424L21.6304 0.648H23.2144L26.2024 9H24.7624L24.1624 7.296ZM23.7784 6.18L22.4224 2.304L21.0544 6.18H23.7784ZM28.8696 0.12V9H27.5016V0.12H28.8696ZM33.3296 2.28C33.8416 2.28 34.2936 2.384 34.6856 2.592C35.0856 2.792 35.3976 3.044 35.6216 3.348V2.388H37.0016V9.108C37.0016 9.716 36.8736 10.256 36.6176 10.728C36.3616 11.208 35.9896 11.584 35.5016 11.856C35.0216 12.128 34.4456 12.264 33.7736 12.264C32.8776 12.264 32.1336 12.052 31.5416 11.628C30.9496 11.212 30.6136 10.644 30.5336 9.924H31.8896C31.9936 10.268 32.2136 10.544 32.5496 10.752C32.8936 10.968 33.3016 11.076 33.7736 11.076C34.3256 11.076 34.7696 10.908 35.1056 10.572C35.4496 10.236 35.6216 9.748 35.6216 9.108V8.004C35.3896 8.316 35.0736 8.58 34.6736 8.796C34.2816 9.004 33.8336 9.108 33.3296 9.108C32.7536 9.108 32.2256 8.964 31.7456 8.676C31.2736 8.38 30.8976 7.972 30.6176 7.452C30.3456 6.924 30.2096 6.328 30.2096 5.664C30.2096 5 30.3456 4.412 30.6176 3.9C30.8976 3.388 31.2736 2.992 31.7456 2.712C32.2256 2.424 32.7536 2.28 33.3296 2.28ZM35.6216 5.688C35.6216 5.232 35.5256 4.836 35.3336 4.5C35.1496 4.164 34.9056 3.908 34.6016 3.732C34.2976 3.556 33.9696 3.468 33.6176 3.468C33.2656 3.468 32.9376 3.556 32.6336 3.732C32.3296 3.9 32.0816 4.152 31.8896 4.488C31.7056 4.816 31.6136 5.208 31.6136 5.664C31.6136 6.12 31.7056 6.52 31.8896 6.864C32.0816 7.208 32.3296 7.472 32.6336 7.656C32.9456 7.832 33.2736 7.92 33.6176 7.92C33.9696 7.92 34.2976 7.832 34.6016 7.656C34.9056 7.48 35.1496 7.224 35.3336 6.888C35.5256 6.544 35.6216 6.144 35.6216 5.688ZM41.6664 9.108C41.0424 9.108 40.4784 8.968 39.9744 8.688C39.4704 8.4 39.0744 8 38.7864 7.488C38.4984 6.968 38.3544 6.368 38.3544 5.688C38.3544 5.016 38.5024 4.42 38.7984 3.9C39.0944 3.38 39.4984 2.98 40.0104 2.7C40.5224 2.42 41.0944 2.28 41.7264 2.28C42.3584 2.28 42.9304 2.42 43.4424 2.7C43.9544 2.98 44.3584 3.38 44.6544 3.9C44.9504 4.42 45.0984 5.016 45.0984 5.688C45.0984 6.36 44.9464 6.956 44.6424 7.476C44.3384 7.996 43.9224 8.4 43.3944 8.688C42.8744 8.968 42.2984 9.108 41.6664 9.108ZM41.6664 7.92C42.0184 7.92 42.3464 7.836 42.6504 7.668C42.9624 7.5 43.2144 7.248 43.4064 6.912C43.5984 6.576 43.6944 6.168 43.6944 5.688C43.6944 5.208 43.6024 4.804 43.4184 4.476C43.2344 4.14 42.9904 3.888 42.6864 3.72C42.3824 3.552 42.0544 3.468 41.7024 3.468C41.3504 3.468 41.0224 3.552 40.7184 3.72C40.4224 3.888 40.1864 4.14 40.0104 4.476C39.8344 4.804 39.7464 5.208 39.7464 5.688C39.7464 6.4 39.9264 6.952 40.2864 7.344C40.6544 7.728 41.1144 7.92 41.6664 7.92ZM49.7868 2.28C50.3068 2.28 50.7708 2.388 51.1788 2.604C51.5948 2.82 51.9188 3.14 52.1508 3.564C52.3828 3.988 52.4988 4.5 52.4988 5.1V9H51.1428V5.304C51.1428 4.712 50.9948 4.26 50.6988 3.948C50.4028 3.628 49.9988 3.468 49.4868 3.468C48.9748 3.468 48.5668 3.628 48.2628 3.948C47.9668 4.26 47.8188 4.712 47.8188 5.304V9H46.4508V2.388H47.8188V3.144C48.0428 2.872 48.3268 2.66 48.6708 2.508C49.0228 2.356 49.3948 2.28 49.7868 2.28ZM57.1118 9.108C56.4878 9.108 55.9238 8.968 55.4198 8.688C54.9158 8.4 54.5198 8 54.2318 7.488C53.9438 6.968 53.7998 6.368 53.7998 5.688C53.7998 5.016 53.9478 4.42 54.2438 3.9C54.5398 3.38 54.9438 2.98 55.4558 2.7C55.9678 2.42 56.5398 2.28 57.1718 2.28C57.8038 2.28 58.3758 2.42 58.8878 2.7C59.3998 2.98 59.8038 3.38 60.0998 3.9C60.3958 4.42 60.5438 5.016 60.5438 5.688C60.5438 6.36 60.3918 6.956 60.0878 7.476C59.7838 7.996 59.3678 8.4 58.8398 8.688C58.3198 8.968 57.7438 9.108 57.1118 9.108ZM57.1118 7.92C57.4638 7.92 57.7918 7.836 58.0958 7.668C58.4078 7.5 58.6598 7.248 58.8518 6.912C59.0438 6.576 59.1398 6.168 59.1398 5.688C59.1398 5.208 59.0478 4.804 58.8638 4.476C58.6798 4.14 58.4358 3.888 58.1318 3.72C57.8278 3.552 57.4998 3.468 57.1478 3.468C56.7958 3.468 56.4678 3.552 56.1638 3.72C55.8678 3.888 55.6318 4.14 55.4558 4.476C55.2798 4.804 55.1918 5.208 55.1918 5.688C55.1918 6.4 55.3718 6.952 55.7318 7.344C56.0998 7.728 56.5598 7.92 57.1118 7.92ZM69.9001 2.28C70.4201 2.28 70.8841 2.388 71.2921 2.604C71.7081 2.82 72.0321 3.14 72.2641 3.564C72.5041 3.988 72.6241 4.5 72.6241 5.1V9H71.2681V5.304C71.2681 4.712 71.1201 4.26 70.8241 3.948C70.5281 3.628 70.1241 3.468 69.6121 3.468C69.1001 3.468 68.6921 3.628 68.3881 3.948C68.0921 4.26 67.9441 4.712 67.9441 5.304V9H66.5881V5.304C66.5881 4.712 66.4401 4.26 66.1441 3.948C65.8481 3.628 65.4441 3.468 64.9321 3.468C64.4201 3.468 64.0121 3.628 63.7081 3.948C63.4121 4.26 63.2641 4.712 63.2641 5.304V9H61.8961V2.388H63.2641V3.144C63.4881 2.872 63.7721 2.66 64.1161 2.508C64.4601 2.356 64.8281 2.28 65.2201 2.28C65.7481 2.28 66.2201 2.392 66.6361 2.616C67.0521 2.84 67.3721 3.164 67.5961 3.588C67.7961 3.188 68.1081 2.872 68.5321 2.64C68.9561 2.4 69.4121 2.28 69.9001 2.28ZM80.3168 2.388L76.2608 12.108H74.8448L76.1888 8.892L73.5848 2.388H75.1088L76.9688 7.428L78.9008 2.388H80.3168Z" fill="#CCCCCC"/>
</svg>
