<svg width="49" height="51" viewBox="0 0 49 51" fill="none" xmlns="http://www.w3.org/2000/svg">
<path d="M37.9816 0.205566H11.0184C4.93308 0.205566 0 5.30766 0 11.6014V39.4884C0 45.7822 4.93308 50.8843 11.0184 50.8843H37.9816C44.0669 50.8843 49 45.7822 49 39.4884V11.6014C49 5.30766 44.0669 0.205566 37.9816 0.205566Z" fill="#F7CC45" fill-opacity="0.2"/>
<path fill-rule="evenodd" clip-rule="evenodd" d="M15.9759 20.1245C17.0585 20.1245 18.0057 19.4857 18.5245 18.5313H22.274C22.7928 19.4857 23.74 20.1245 24.8226 20.1245C25.9052 20.1245 26.8525 19.4857 27.3713 18.5313H31.1208C31.6396 19.4857 32.5869 20.1245 33.6695 20.1245C35.3094 20.1245 36.6388 18.6587 36.6388 16.8506C36.6388 15.0424 35.3094 13.5766 33.6695 13.5766C32.5318 13.5766 31.5435 14.2821 31.0449 15.318H27.4472C26.9486 14.2821 25.9603 13.5766 24.8226 13.5766C23.6849 13.5766 22.6967 14.2821 22.1981 15.318H18.6004C18.1018 14.2821 17.1136 13.5766 15.9759 13.5766C14.336 13.5766 13.0066 15.0424 13.0066 16.8506C13.0066 18.6587 14.336 20.1245 15.9759 20.1245ZM18.5245 28.3498C18.0057 29.3042 17.0585 29.943 15.9759 29.943C14.336 29.943 13.0066 28.4772 13.0066 26.6691C13.0066 24.8609 14.336 23.3951 15.9759 23.3951C17.1136 23.3951 18.1018 24.1006 18.6004 25.1365H22.1981C22.6967 24.1006 23.6849 23.3951 24.8226 23.3951C26.4625 23.3951 27.7919 24.8609 27.7919 26.6691C27.7919 28.4772 26.4625 29.943 24.8226 29.943C23.74 29.943 22.7928 29.3042 22.274 28.3498H18.5245ZM18.9452 36.4875C18.9452 38.2957 17.6158 39.7615 15.9759 39.7615C14.336 39.7615 13.0066 38.2957 13.0066 36.4875C13.0066 34.6794 14.336 33.2136 15.9759 33.2136C17.6158 33.2136 18.9452 34.6794 18.9452 36.4875Z" fill="#F7CC46"/>
</svg>
