<svg width="72" height="70" viewBox="0 0 72 70" fill="none" xmlns="http://www.w3.org/2000/svg">
<path fill-rule="evenodd" clip-rule="evenodd" d="M66.1887 22.0938L68.1574 21.2188C69.9074 25.375 71.0012 29.9688 71.0012 34.5625C71.0012 43.9688 67.5012 52.7188 60.9387 59.5C54.3762 66.2812 45.6262 70 36.2199 70C34.6887 70 33.1574 70 31.6262 69.7812C14.5637 67.8125 1.2199 53.1563 1.00115 35.4375C0.782404 15.9688 16.3137 0.21875 35.5637 0C40.5949 0 45.4074 0.875 49.7824 2.84375L48.9074 4.8125C44.7512 3.0625 40.3762 2.1875 35.7824 2.1875C27.0324 2.1875 18.7199 5.6875 12.5949 12.0312C6.4699 18.1562 3.18865 26.4688 3.18865 35.2188C3.18865 43.9688 6.68865 52.2812 13.0324 58.4062C19.1574 64.5312 27.4699 67.8125 36.2199 67.8125C44.9699 67.8125 53.2824 64.3125 59.4074 57.9688C65.5324 51.8438 68.8137 43.5312 68.8137 34.7812C68.8137 30.4062 67.9387 26.0312 66.1887 22.0938ZM36.0012 63.6562C20.0324 63.6562 7.3449 50.75 7.3449 35C7.3449 19.25 20.0324 6.34375 36.0012 6.34375C51.9699 6.34375 64.6574 19.25 64.6574 35C64.6574 50.75 51.9699 63.6562 36.0012 63.6562ZM48.9293 22.9906C48.6449 22.1375 47.7262 21.6562 46.873 21.9406V21.9625L45.998 22.2469C45.1668 22.5094 44.7293 23.3625 44.9262 24.1938C44.8605 24.2156 44.7293 24.2375 44.7293 24.2375L35.5199 27.1906C34.273 27.5844 33.4199 28.6125 33.1574 29.7937L27.8637 31.5C26.7043 31.8719 25.873 32.7906 25.5449 33.8844L16.4449 36.8156C15.1543 37.2313 14.4324 38.6094 14.848 39.9219C15.2637 41.2125 16.6418 41.9344 17.9543 41.5187L27.0543 38.5875C27.9512 39.2875 29.1543 39.55 30.3137 39.1781L31.473 38.8063C31.3855 39.1781 31.3199 39.55 31.3199 39.9438C31.3199 41.3219 31.9105 42.5469 32.8512 43.4L26.8574 53.375C26.4855 53.9875 26.6824 54.7531 27.2949 55.125C27.4918 55.2344 27.7324 55.3 27.9512 55.3C28.3887 55.3 28.8043 55.0812 29.0449 54.6875L35.1262 44.5594L35.1262 44.5594C35.4324 44.6031 35.7387 44.6469 36.0449 44.6469C36.4824 44.6469 36.898 44.5594 37.2918 44.45L44.7949 54.7531C45.2324 55.3219 46.0199 55.4531 46.5887 55.0375C47.1574 54.6 47.2887 53.8125 46.873 53.2438L39.4793 43.0938C40.2668 42.2406 40.748 41.125 40.748 39.9C40.748 39.1562 40.5512 38.4563 40.2449 37.8219L48.273 35.2406C48.3058 35.2297 48.3332 35.2133 48.3605 35.1969C48.3879 35.1805 48.4152 35.1641 48.448 35.1531C48.7762 35.9406 49.6293 36.3781 50.4605 36.1156L51.3355 35.8312C52.1887 35.5469 52.6699 34.6281 52.3855 33.775L51.9918 32.5281C53.0855 31.8719 53.4355 29.8375 52.7574 27.7156C52.0793 25.5938 50.5918 24.15 49.323 24.2375L48.9293 22.9906ZM43.198 23.1875L45.8668 15.8813V15.8594L38.5605 13.1906L40.2668 16.8656L30.948 20.9125L24.0793 18.6375C23.5105 18.4406 22.8762 18.6812 22.5699 19.2062L17.2324 28.3719C16.8824 28.9844 17.0793 29.7719 17.6918 30.1219C17.8887 30.2313 18.1074 30.2969 18.3262 30.2969C18.7855 30.2969 19.2012 30.0781 19.4418 29.6625L24.2543 21.3937L30.598 23.4937C30.9043 23.5812 31.2324 23.5813 31.5168 23.45L41.3387 19.1844L43.198 23.1875Z" fill="#F7CC45"/>
</svg>
