<svg width="70" height="70" viewBox="0 0 70 70" fill="none" xmlns="http://www.w3.org/2000/svg">
<g clip-path="url(#clip0_615_62)">
<path d="M6.45312 35.0656C6.45312 50.8375 19.2281 63.6125 35 63.6125C50.7719 63.6125 63.5469 50.8375 63.5469 35.0656C63.5469 19.2938 50.7719 6.51875 35 6.51875C19.2281 6.51875 6.45312 19.3156 6.45312 35.0656ZM40.775 28.0656C41.2562 27.5406 41.8906 27.1469 42.5906 26.9938C43.2906 26.8188 44.0344 26.8625 44.7125 27.1031L48.2125 23.6031C47.8187 22.4875 47.9937 21.2406 48.6719 20.2781C49.35 19.3156 50.4656 18.725 51.6469 18.725C52.8062 18.725 53.8781 19.25 54.5781 20.1688C55.2781 21.0875 55.5187 22.2688 55.2125 23.3844C54.9062 24.5 54.0969 25.3969 53.025 25.8125C51.9531 26.2281 50.75 26.1406 49.7656 25.55L46.6375 28.6781C47.25 29.6625 47.3594 30.8656 46.9437 31.9375C46.5281 33.0094 45.6312 33.8188 44.5156 34.1469C43.4 34.4531 42.2188 34.2344 41.3 33.5344C40.3812 32.8344 39.8563 31.7406 39.8563 30.5813V30.3625L35.175 28.4813C34.9344 28.8531 34.65 29.1594 34.3 29.4219L37.6031 40.0094C38.5 40.1625 39.3094 40.6438 39.8781 41.3656C40.4469 42.0875 40.7094 43.0063 40.6437 43.9031C40.5781 44.8219 40.1625 45.675 39.4844 46.2875C38.8062 46.9219 37.9312 47.2719 37.0125 47.2719C36.0938 47.2719 35.2188 46.9438 34.5187 46.3313C33.8406 45.7188 33.4031 44.8656 33.3156 43.9688L27.3219 41.2781C26.6437 41.9563 25.725 42.35 24.7625 42.35L23.6031 48.7375C24.5438 49.4156 25.1125 50.5094 25.1344 51.6688C25.1344 52.8281 24.6094 53.9219 23.6906 54.6438C22.7719 55.3438 21.5688 55.5844 20.4531 55.2563C19.3375 54.9281 18.4406 54.0969 18.025 53.0031C17.6094 51.9094 17.7625 50.7063 18.375 49.7219C19.0094 48.7375 20.0594 48.125 21.2188 48.0594L22.4 41.5406C21.3938 40.7313 20.8906 39.4406 21.0656 38.1719C21.2406 36.8813 22.0938 35.8094 23.275 35.3063C24.4781 34.8031 25.8344 34.9781 26.8844 35.7438C27.9125 36.5094 28.4813 37.7781 28.35 39.0688L33.9062 41.5625C34.2125 41.0813 34.6281 40.7094 35.1312 40.425L31.9375 30.1438C30.9969 30.1438 30.1 29.75 29.4219 29.0719C28.7437 28.4156 28.3719 27.5188 28.35 26.5563C28.3281 25.5938 28.6563 24.6969 29.2906 23.9969C29.925 23.2969 30.8 22.8813 31.7406 22.7938C32.6813 22.7281 33.6219 23.0125 34.3438 23.625C35.0656 24.2375 35.5469 25.0906 35.6562 26.0094L40.7531 28.0438L40.775 28.0656Z" fill="#F7CC45"/>
<path d="M67.1781 21.1969L65.1656 22.0719C66.8719 26.075 67.7688 30.3188 67.8125 34.6937C67.9 43.4656 64.5531 51.7344 58.4281 57.9906C52.2812 64.2469 44.0781 67.7469 35.3281 67.8125C26.5781 67.9 18.2875 64.5531 12.0312 58.4281C5.775 52.2812 2.275 44.0781 2.20937 35.3281C2.12187 26.5562 5.46875 18.2875 11.5938 12.0312C17.7188 5.775 25.9219 2.275 34.6937 2.1875C39.3094 2.14375 43.7719 3.04063 47.9719 4.83438L48.8469 2.82188C44.3406 0.91875 39.5938 -0.0437494 34.6719 6.08736e-07C15.3563 0.196876 -0.175 16.0344 -3.80445e-07 35.3281C0.175 53.0469 13.5625 67.6156 30.6906 69.7375C32.2219 69.9344 33.775 70.0219 35.3281 70C44.6687 69.9125 53.4406 66.1937 59.9813 59.5219C66.5219 52.85 70.0875 44.0344 70 34.6719C69.9562 29.9906 68.9937 25.4625 67.1781 21.1969Z" fill="#F7CC45"/>
</g>
<defs>
<clipPath id="clip0_615_62">
<rect width="70" height="70" fill="white"/>
</clipPath>
</defs>
</svg>
