<svg width="10" height="12" viewBox="0 0 10 12" fill="none" xmlns="http://www.w3.org/2000/svg">
<path d="M8.05998 4H6.99998V0.666667C6.99998 0.3 6.69998 0 6.33331 0H3.66665C3.29998 0 2.99998 0.3 2.99998 0.666667V4H1.93998C1.34665 4 1.04665 4.72 1.46665 5.14L4.52665 8.2C4.78665 8.46 5.20665 8.46 5.46665 8.2L8.52665 5.14C8.94665 4.72 8.65331 4 8.05998 4ZM0.333313 10.6667C0.333313 11.0333 0.633313 11.3333 0.99998 11.3333H8.99998C9.36665 11.3333 9.66665 11.0333 9.66665 10.6667C9.66665 10.3 9.36665 10 8.99998 10H0.99998C0.633313 10 0.333313 10.3 0.333313 10.6667Z" fill="#8C8C8C"/>
</svg>
