<svg width="10" height="11" viewBox="0 0 10 11" fill="none" xmlns="http://www.w3.org/2000/svg">
<path fill-rule="evenodd" clip-rule="evenodd" d="M5.0033 5.65655C4.83174 5.65655 4.66678 5.59716 4.53481 5.46519H4.52821L0.193006 1.12999C-0.0643352 0.872649 -0.0643352 0.450346 0.193006 0.193006C0.450346 -0.0643352 0.872649 -0.0643352 1.12999 0.193006L4.9967 4.06631L8.87001 0.199604C9.12735 -0.0577367 9.54305 -0.0577367 9.8004 0.199604C10.0577 0.456945 10.0577 0.872649 9.8004 1.12999L5.47179 5.46519C5.33982 5.59056 5.17486 5.65655 5.0033 5.65655ZM4.99652 8.71503L8.86982 4.84832H8.87642C9.13376 4.59098 9.54947 4.59098 9.80681 4.84832C10.0641 5.10566 10.0641 5.52136 9.80681 5.77871L5.47161 10.1139C5.33964 10.2393 5.17467 10.3053 5.00311 10.3053C4.83155 10.3053 4.66659 10.2459 4.53462 10.1139L0.199419 5.77871C-0.0579215 5.52136 -0.0579215 5.10566 0.199419 4.84832C0.45676 4.59098 0.872464 4.59098 1.12981 4.84832L4.99652 8.71503Z" fill="#8C8C8C"/>
</svg>
