<svg width="95" height="95" viewBox="0 0 95 95" fill="none" xmlns="http://www.w3.org/2000/svg">
<path fill-rule="evenodd" clip-rule="evenodd" d="M88.469 29.9844L91.1408 28.7969C93.5157 34.4375 95 40.6719 95 46.9062C95 59.6719 90.2502 71.5469 81.3442 80.75C72.4382 89.9531 60.5636 95 47.7984 95C45.7204 95 43.6423 95 41.5642 94.7031C18.4087 92.0312 0.299963 72.1406 0.00309784 48.0938C-0.293768 21.6719 20.7837 0.296875 46.9078 0C53.7357 0 60.2668 1.1875 66.2041 3.85937L65.0166 6.53125C59.3762 4.15625 53.4389 2.96875 47.2047 2.96875C35.3301 2.96875 24.0492 7.71875 15.737 16.3281C7.42473 24.6406 2.97175 35.9219 2.97175 47.7969C2.97175 59.6719 7.7216 70.9531 16.3307 79.2656C24.6429 87.5781 35.9238 92.0312 47.7984 92.0312C59.673 92.0312 70.9539 87.2812 79.2661 78.6719C87.5784 70.3594 92.0313 59.0781 92.0313 47.2031C92.0313 41.2656 90.8439 35.3281 88.469 29.9844ZM46.3735 41.4734H47.8281C48.5703 41.4734 49.164 42.0969 49.164 42.8391V44.2938C49.164 45.0359 48.5703 45.6594 47.8281 45.6594H46.3735C45.6313 45.6594 45.0376 45.0359 45.0376 44.2938V42.8391C45.0376 42.0969 45.6313 41.4734 46.3735 41.4734ZM47.8281 48.2125H46.3735C45.6313 48.2125 45.0376 48.8359 45.0376 49.5781V51.0328C45.0376 51.775 45.6313 52.3984 46.3735 52.3984H47.8281C48.5703 52.3984 49.164 51.775 49.164 51.0328V49.5781C49.164 48.8359 48.5703 48.2125 47.8281 48.2125ZM38.9815 34.7641H40.4362C41.1783 34.7641 41.7721 35.3875 41.7721 36.1297V37.5844C41.7721 38.3266 41.1783 38.95 40.4362 38.95H38.9815C38.2394 38.95 37.6456 38.3266 37.6456 37.5844V36.1297C37.6456 35.3875 38.2394 34.7641 38.9815 34.7641ZM40.4362 54.9516H38.9815C38.2394 54.9516 37.6456 55.575 37.6456 56.3172V57.7719C37.6456 58.5141 38.2394 59.1375 38.9815 59.1375H40.4362C41.1783 59.1375 41.7721 58.5141 41.7721 57.7719V56.3172C41.7721 55.575 41.1783 54.9516 40.4362 54.9516ZM38.9815 41.4734H40.4362C41.1783 41.4734 41.7721 42.0969 41.7721 42.8391V44.2938C41.7721 45.0359 41.1783 45.6594 40.4362 45.6594H38.9815C38.2394 45.6594 37.6456 45.0359 37.6456 44.2938V42.8391C37.6456 42.0969 38.2394 41.4734 38.9815 41.4734ZM47.8281 34.7641H46.3735C45.6313 34.7641 45.0376 35.3875 45.0376 36.1297V37.5844C45.0376 38.3266 45.6313 38.95 46.3735 38.95H47.8281C48.5703 38.95 49.164 38.3266 49.164 37.5844V36.1297C49.164 35.3875 48.5703 34.7641 47.8281 34.7641ZM38.9815 48.2125H40.4362C41.1783 48.2125 41.7721 48.8359 41.7721 49.5781V51.0328C41.7721 51.775 41.1783 52.3984 40.4362 52.3984H38.9815C38.2394 52.3984 37.6456 51.775 37.6456 51.0328V49.5781C37.6456 48.8359 38.2394 48.2125 38.9815 48.2125ZM40.4362 61.6609H38.9815C38.2394 61.6609 37.6456 62.2844 37.6456 63.0266V64.4812C37.6456 65.2234 38.2394 65.8469 38.9815 65.8469H40.4362C41.1783 65.8469 41.7721 65.2234 41.7721 64.4812V63.0266C41.7721 62.2844 41.1783 61.6609 40.4362 61.6609ZM53.7654 34.7641H55.2201C55.9622 34.7641 56.5559 35.3875 56.5559 36.1297V37.5844C56.5559 38.3266 55.9622 38.95 55.2201 38.95H53.7654C53.0233 38.95 52.4295 38.3266 52.4295 37.5844V36.1297C52.4295 35.3875 53.0233 34.7641 53.7654 34.7641ZM37.6456 31.2906C37.6456 32.0328 38.2394 32.6562 38.9815 32.6562H55.2201C55.9622 32.6562 56.5559 32.0328 56.5559 31.2906V28.7375C56.5559 27.9953 55.9622 27.3719 55.2201 27.3719H38.9815C38.2394 27.3719 37.6456 27.9953 37.6456 28.7375V31.2906ZM47.5016 86.3906C25.8304 86.3906 8.61219 68.875 8.61219 47.5C8.61219 26.125 25.8304 8.60938 47.5016 8.60938C69.1727 8.60938 86.3909 26.125 86.3909 47.5C86.3909 68.875 69.1727 86.3906 47.5016 86.3906ZM59.9402 40.0484V25.5906L59.9105 25.5312C59.9105 23.8094 58.5449 22.4438 56.8825 22.4438H37.6753C36.0129 22.4438 34.6473 23.8391 34.6473 25.5312V27.4906H31.8864V30.5484H34.6473V32.0328H31.8864V35.0906H34.6473V36.575H31.8864V39.6328H34.6473V41.1172H31.8864V44.175H34.6473V45.6297H31.8864V48.2422H30.2537V45.6297H27.2553V48.2422H25.6226V45.6297H22.6242V48.2422H21.1696V50.4391H34.6473V52.4578H21.1696V54.6547H34.6473V56.6734H21.1696V58.8703H34.6473V60.8891H21.1696V63.0859H34.677V64.2141C34.677 64.5109 34.7067 64.8375 34.7957 65.1047H21.1696V67.3016H44.1173V55.6047C44.1173 55.2484 44.4142 54.9516 44.7704 54.9516H49.8765C50.2327 54.9516 50.5296 55.2484 50.5296 55.6047V67.3016H56.9122C58.5746 67.3016 59.9402 65.9062 59.9402 64.2141V42.8984H61.9589V66.5297H64.126V42.8984H65.6994V66.5297H67.8665V42.8984H69.4399V66.5297H71.607V42.8984H73.8335V40.0484H59.9402ZM55.2201 41.4734H53.7654C53.0233 41.4734 52.4295 42.0969 52.4295 42.8391V44.2938C52.4295 45.0359 53.0233 45.6594 53.7654 45.6594H55.2201C55.9622 45.6594 56.5559 45.0359 56.5559 44.2938V42.8391C56.5559 42.0969 55.9622 41.4734 55.2201 41.4734ZM53.7654 54.9516H55.2201C55.9622 54.9516 56.5559 55.575 56.5559 56.3172V57.7719C56.5559 58.5141 55.9622 59.1375 55.2201 59.1375H53.7654C53.0233 59.1375 52.4295 58.5141 52.4295 57.7719V56.3172C52.4295 55.575 53.0233 54.9516 53.7654 54.9516ZM55.2201 61.6609H53.7654C53.0233 61.6609 52.4295 62.2844 52.4295 63.0266V64.4812C52.4295 65.2234 53.0233 65.8469 53.7654 65.8469H55.2201C55.9622 65.8469 56.5559 65.2234 56.5559 64.4812V63.0266C56.5559 62.2844 55.9622 61.6609 55.2201 61.6609ZM53.7654 48.2125H55.2201C55.9622 48.2125 56.5559 48.8359 56.5559 49.5781V51.0328C56.5559 51.775 55.9622 52.3984 55.2201 52.3984H53.7654C53.0233 52.3984 52.4295 51.775 52.4295 51.0328V49.5781C52.4295 48.8359 53.0233 48.2125 53.7654 48.2125Z" fill="#F7CC45"/>
</svg>
