<svg width="20" height="20" viewBox="0 0 20 20" fill="none" xmlns="http://www.w3.org/2000/svg">
<path fill-rule="evenodd" clip-rule="evenodd" d="M19.375 0H13.125L15.799 2.67402L11.9154 6.12616L8.20711 2.41789C7.87004 2.08083 7.34192 2.02853 6.9453 2.29295L1.3203 6.04295C0.860771 6.3493 0.736597 6.97017 1.04295 7.4297C1.3493 7.88923 1.97017 8.0134 2.4297 7.70705L7.37258 4.4118L11.1679 8.20711C11.5423 8.5815 12.1436 8.59917 12.5394 8.24741L17.2157 4.09068L19.375 6.25V0ZM6.875 7.5C6.1875 7.5 5.625 8.0257 5.625 8.66822V20H8.125V8.66822C8.125 8.0257 7.5625 7.5 6.875 7.5ZM1.875 10C1.1875 10 0.625 10.5025 0.625 11.1167V19.816H3.125V11.1167C3.125 10.5025 2.5625 10 1.875 10ZM10.625 12.4044C10.625 11.7695 11.1875 11.25 11.875 11.25C12.5625 11.25 13.125 11.7695 13.125 12.4044V20H10.625V12.4044ZM16.875 8.75C16.1875 8.75 15.625 9.23445 15.625 9.82656V20H18.125V9.82656C18.125 9.23445 17.5625 8.75 16.875 8.75Z" fill="#F7CC45"/>
</svg>
