<svg width="195px" height="190px" viewBox="0 0 195 190"  xmlns="http://www.w3.org/2000/svg" xmlns:xlink="http://www.w3.org/1999/xlink" overflow="hidden"><defs><clipPath id="clip0"><rect x="244" y="263" width="196" height="194"/></clipPath><clipPath id="clip1"><rect x="245" y="264" width="194" height="192"/></clipPath><clipPath id="clip2"><rect x="245" y="264" width="194" height="192"/></clipPath><clipPath id="clip3"><rect x="245" y="264" width="789" height="192"/></clipPath></defs><g clip-path="url(#clip0)" transform="translate(-244 -263)"><g clip-path="url(#clip1)"><g clip-path="url(#clip2)"><g clip-path="url(#clip3)"><path d="M151.675 0C173.679-7.0772e-15 191.516 17.8375 191.516 39.8411L191.516 151.675C191.516 173.679 173.679 191.516 151.675 191.516L39.8411 191.516C17.8375 191.516 0 173.679 0 151.675L0 39.8411C-7.0772e-15 17.8375 17.8375 0 39.8411 0Z" fill="#FFFFFF" fill-opacity="0.2" transform="matrix(1 0 0 1.00253 245.698 264)"/><path d="M52.9687 126.615C45.1139 125.361 37.7298 130.712 36.476 138.567 35.2223 146.422 40.5735 153.806 48.4284 155.06 56.2833 156.314 63.6673 150.963 64.9211 143.108 65.1611 141.604 65.1611 140.071 64.9211 138.567 63.9367 132.42 59.1162 127.599 52.9687 126.615Z" fill="#ffcb00" transform="matrix(1 0 0 1.00253 245.698 264)"/><path d="M155.032 48.3173C153.725 40.4767 146.309 35.18 138.469 36.4869 135.16 37.0384 132.147 38.7286 129.952 41.2654 128.743 42.6703 126.984 43.4809 125.131 43.4866L111.455 43.4866C109.579 43.4893 107.796 42.6704 106.575 41.2455 101.368 35.2468 92.2842 34.6048 86.2854 39.8117 85.7743 40.2553 85.2952 40.7344 84.8516 41.2455 83.6399 42.6598 81.8733 43.4777 80.0109 43.4866L66.3852 43.4866C64.5321 43.4809 62.7729 42.6703 61.5645 41.2654 56.3579 35.2592 47.2681 34.611 41.2618 39.8176 35.2556 45.0242 34.6074 54.114 39.814 60.1202 45.0206 66.1265 54.1104 66.7747 60.1166 61.5681 60.633 61.1204 61.1168 60.6366 61.5645 60.1202 62.7762 58.7059 64.5428 57.888 66.4052 57.8792L80.0607 57.8792C81.9231 57.888 83.6897 58.7059 84.9014 60.1202 90.1082 66.119 99.1922 66.7609 105.191 61.5541 105.702 61.1104 106.181 60.6313 106.625 60.1202 107.836 58.7059 109.603 57.888 111.465 57.8792L125.141 57.8792C127.003 57.888 128.77 58.7059 129.982 60.1202 135.189 66.1262 144.278 66.7739 150.284 61.5669 154.073 58.2823 155.879 53.2627 155.052 48.3173Z" fill="#ffcb00" transform="matrix(1 0 0 1.00253 245.698 264)"/><path d="M101.754 82.5806C95.9143 80.0046 89.0777 81.5261 84.8815 86.3357 83.673 87.7406 81.9138 88.5511 80.0607 88.5568L66.3852 88.5568C64.5321 88.5511 62.7729 87.7406 61.5645 86.3357 57.3667 81.5215 50.5244 79.9997 44.6818 82.5806 41.46 83.8959 38.8915 86.4356 37.5403 89.6425 33.2076 100.101 40.7774 110.111 50.6878 110.111 54.8619 110.11 58.8288 108.292 61.5545 105.131 62.7639 103.719 64.5263 102.901 66.3852 102.89L80.0607 102.89C81.9196 102.901 83.682 103.719 84.8914 105.131 87.6172 108.292 91.584 110.11 95.7581 110.111 105.669 110.111 113.238 100.151 108.906 89.6425 107.551 86.4343 104.979 83.8946 101.754 82.5806Z" fill="#ffcb00" transform="matrix(1 0 0 1.00253 245.698 264)"/></g></g></g></g></svg>