<svg width="22" height="22" viewBox="0 0 22 22" fill="none" xmlns="http://www.w3.org/2000/svg">
<g clip-path="url(#clip0_2606_6115)">
<path d="M6.37029 12.115C6.66898 12.115 6.95618 11.9986 7.18594 11.7773C7.63397 11.323 7.63397 10.5893 7.18594 10.135L4.32543 7.23485H12.1143C12.7461 7.23485 13.2631 6.71072 13.2631 6.07012C13.2631 5.42952 12.7461 4.90539 12.1143 4.90539H4.52073L7.17445 2.21488C7.62248 1.76064 7.62248 1.02686 7.17445 0.572616C6.72642 0.118373 6.00268 0.118373 5.55465 0.572616L0.833093 5.33634C0.385063 5.79059 0.385063 6.52436 0.833093 6.97861L5.55465 11.7656C5.78441 11.9986 6.07161 12.1034 6.37029 12.1034V12.115Z" fill="#8C8C8C"/>
<path d="M21.1668 14.4329L16.4452 9.64588C16.2155 9.41293 15.9283 9.30811 15.6296 9.30811C15.3309 9.30811 15.0437 9.42458 14.8139 9.64588C14.3659 10.1001 14.3659 10.8339 14.8139 11.2881L17.6745 14.1883H9.88561C9.25377 14.1883 8.73682 14.7124 8.73682 15.353C8.73682 15.9936 9.25377 16.5178 9.88561 16.5178H17.4562L14.8025 19.2083C14.3544 19.6625 14.3544 20.3963 14.8025 20.8505C15.2505 21.3048 15.9742 21.3048 16.4223 20.8505L21.1438 16.0635C21.5918 15.6093 21.5918 14.8755 21.1438 14.4212L21.1668 14.4329Z" fill="#8C8C8C"/>
</g>
<defs>
<clipPath id="clip0_2606_6115">
<rect width="21" height="21" fill="white" transform="translate(0.5 0.211426)"/>
</clipPath>
</defs>
</svg>
