<svg width="236" height="138" viewBox="0 0 236 138" fill="none" xmlns="http://www.w3.org/2000/svg">
<path d="M65.0904 49.0368C42.976 35.8282 0.698497 36.8787 0.698486 78.9062C0.698475 120.934 56.0844 94.8168 40.6243 84.3097C23.5132 72.6805 5.09452 110.552 42.4256 123.936C74.2462 135.343 60.5873 130.69 87.755 137.745" stroke="#0AA5FF" stroke-width="0.300196" stroke-linecap="round" stroke-linejoin="round" stroke-dasharray="1.2 2.4"/>
<path d="M168.808 52.0389C183.118 51.0883 225.095 52.9393 214.888 34.3273C199.816 6.84352 125.43 121.984 235.301 124.686" stroke="#0AA5FF" stroke-width="0.300196" stroke-linecap="round" stroke-linejoin="round" stroke-dasharray="1.2 2.4"/>
<circle cx="116.274" cy="57.8931" r="57.6375" transform="rotate(-90 116.274 57.8931)" fill="url(#paint0_linear_429_784)"/>
<circle cx="138.188" cy="96.0175" r="36.924" fill="url(#paint1_linear_429_784)"/>
<circle cx="84.7537" cy="84.0097" r="36.924" fill="url(#paint2_linear_429_784)"/>
<rect x="134.432" y="31.8269" width="47.54" height="66.2882" rx="1.86121" transform="rotate(14.2529 134.432 31.8269)" fill="#10232F" stroke="#001019" stroke-width="3.60235"/>
<path d="M143.591 45.133L158.301 49.0369" stroke="#57809A" stroke-width="1.80118" stroke-linecap="round"/>
<path d="M144.793 58.9433L154.849 61.4226" stroke="#8EADC1" stroke-width="1.80118" stroke-linecap="round"/>
<path d="M141.19 72.4454L151.247 74.9247" stroke="#FB987E" stroke-width="1.80118" stroke-linecap="round"/>
<path d="M137.888 85.9545L147.944 88.4338" stroke="#57809A" stroke-width="1.80118" stroke-linecap="round"/>
<path d="M138.939 48.7366L157.402 52.9818" stroke="#1A3445" stroke-width="1.80118" stroke-linecap="round"/>
<path d="M135.487 61.1223L153.95 65.3674" stroke="#1A3445" stroke-width="1.80118" stroke-linecap="round"/>
<path d="M131.884 74.6243L150.347 78.8695" stroke="#57809A" stroke-width="1.80118" stroke-linecap="round"/>
<path d="M128.582 88.1332L147.045 92.3784" stroke="#57809A" stroke-width="1.80118" stroke-linecap="round"/>
<circle cx="166.106" cy="53.6902" r="4.21474" transform="rotate(18.5451 166.106 53.6902)" fill="#284B61" stroke="#001019" stroke-width="0.624407"/>
<circle cx="162.342" cy="66.136" r="4.21474" transform="rotate(18.5451 162.342 66.136)" fill="#284B61" stroke="#001019" stroke-width="0.624407"/>
<circle cx="155.437" cy="92.8532" r="4.21474" transform="rotate(18.5451 155.437 92.8532)" fill="#284B61" stroke="#001019" stroke-width="0.624407"/>
<circle cx="159.04" cy="79.6447" r="4.21474" transform="rotate(18.5451 159.04 79.6447)" fill="#284B61" stroke="#001019" stroke-width="0.624407"/>
<path d="M164.429 53.2922L165.315 54.5773L168.306 52.2877" stroke="#0A1922" stroke-width="0.780509" stroke-linecap="round"/>
<path d="M160.664 65.7381L161.55 67.0232L164.541 64.7336" stroke="#0A1922" stroke-width="0.780509" stroke-linecap="round"/>
<path d="M153.759 92.4552L154.645 93.7404L157.636 91.4507" stroke="#0A1922" stroke-width="0.780509" stroke-linecap="round"/>
<path d="M157.361 79.2466L158.248 80.5318L161.238 78.2421" stroke="#0A1922" stroke-width="0.780509" stroke-linecap="round"/>
<path d="M50.9815 10.1615L51.8821 15.565" stroke="#FB987E" stroke-width="1.20078" stroke-linecap="round"/>
<path d="M43.1763 14.5145L47.6793 17.9668" stroke="#FB987E" stroke-width="1.20078" stroke-linecap="round"/>
<path d="M40.7746 23.2198L46.7785 22.4694" stroke="#FB987E" stroke-width="1.20078" stroke-linecap="round"/>
<path d="M161.303 5.05823V11.0621" stroke="#FFC54E" stroke-width="0.600392" stroke-linecap="round"/>
<path d="M57.3903 120.256V123.558" stroke="#FFC54E" stroke-width="0.600392" stroke-linecap="round"/>
<path d="M159.202 8.06067H163.104" stroke="#FFC54E" stroke-width="0.600392" stroke-linecap="round"/>
<path d="M56.235 121.907H58.3814" stroke="#FFC54E" stroke-width="0.600392" stroke-linecap="round"/>
<rect x="149.18" y="31.4766" width="18.7928" height="8.43457" rx="0.600392" transform="rotate(13.4876 149.18 31.4766)" fill="#001019"/>
<path d="M155.6 33.255C155.875 32.1064 157.03 31.3986 158.178 31.6741L160.523 32.2365C161.672 32.512 162.379 33.6664 162.104 34.815L155.6 33.255Z" fill="#001019"/>
<rect x="149.861" y="32.6764" width="16.808" height="6.28701" transform="rotate(13.4876 149.861 32.6764)" stroke="#284B61" stroke-width="0.300196" stroke-linecap="round" stroke-linejoin="round" stroke-dasharray="1.2 1.2"/>
<circle cx="187.87" cy="87.7623" r="1.50098" stroke="#0AA5FF" stroke-width="0.900588"/>
<circle cx="40.7749" cy="58.9433" r="1.50098" stroke="#0AA5FF" stroke-width="0.900588"/>
<path d="M133.545 9.09452L53.3732 21.135C52.8811 21.2089 52.5423 21.6678 52.6164 22.1598L69.6094 134.905C69.6834 135.396 70.1409 135.734 70.6321 135.661L150.804 123.768C151.297 123.695 151.636 123.236 151.562 122.743L134.569 9.85107C134.495 9.35935 134.037 9.02067 133.545 9.09452Z" fill="#10232F" stroke="#001019" stroke-width="1.20078"/>
<path d="M65.375 49.8593C65.1658 50.1166 65.2047 50.4947 65.462 50.7039C65.7192 50.9132 66.0973 50.8742 66.3066 50.617L65.375 49.8593ZM74.9967 38.9808L75.3352 38.4849C75.0774 38.309 74.7279 38.3599 74.531 38.602L74.9967 38.9808ZM87.755 47.6865L87.4166 48.1824C87.6815 48.3632 88.0417 48.3039 88.2346 48.0477L87.755 47.6865ZM105.617 23.9711L99.2357 26.6815L104.773 30.8523L105.617 23.9711ZM66.3066 50.617L75.4625 39.3597L74.531 38.602L65.375 49.8593L66.3066 50.617ZM74.6583 39.4768L87.4166 48.1824L88.0935 47.1906L75.3352 38.4849L74.6583 39.4768ZM88.2346 48.0477L102.845 28.6485L101.886 27.9261L87.2755 47.3253L88.2346 48.0477Z" fill="#0AA5FF"/>
<path d="M65.0908 49.0883C64.6219 49.6685 64.7121 50.5191 65.2923 50.9881C65.8726 51.457 66.7231 51.3668 67.1921 50.7866L65.0908 49.0883ZM74.9972 38.9803L75.7586 37.8644C75.1774 37.4678 74.3889 37.5838 73.9466 38.1312L74.9972 38.9803ZM87.7555 47.686L86.9941 48.8018C87.5915 49.2094 88.4039 49.0743 88.8372 48.4952L87.7555 47.686ZM67.1921 50.7866L76.0479 39.8294L73.9466 38.1312L65.0908 49.0883L67.1921 50.7866ZM74.2358 40.0962L86.9941 48.8018L88.5169 46.5701L75.7586 37.8644L74.2358 40.0962ZM88.8372 48.4952L104.447 27.6317L102.284 26.0131L86.6739 46.8767L88.8372 48.4952Z" fill="#0AA5FF"/>
<path d="M114.472 25.1718L129.482 23.0704" stroke="#FFA914" stroke-width="1.80118" stroke-linecap="round"/>
<path d="M115.373 29.6747L130.383 27.5734" stroke="#1A3445" stroke-width="1.80118" stroke-linecap="round"/>
<path d="M127.981 119.733L142.991 117.631" stroke="#57809A" stroke-width="1.80118" stroke-linecap="round"/>
<path d="M91.3576 81.6081L120.777 77.4054" stroke="#57809A" stroke-width="2.40157" stroke-linecap="round"/>
<path d="M95.5604 109.226L124.98 105.023" stroke="#1A3445" stroke-width="2.40157" stroke-linecap="round"/>
<path d="M92.2584 88.2124L115.974 84.46" stroke="#1A3445" stroke-width="2.40157" stroke-linecap="round"/>
<path d="M94.3598 103.072L118.075 99.3198" stroke="#8EADC1" stroke-width="2.40157" stroke-linecap="round"/>
<path d="M68.693 53.2398L75.5976 45.2845L78.074 62.567L70.1331 63.6971L68.693 53.2398Z" fill="#1A3445"/>
<path d="M89.6758 49.9401L96.5803 41.9849L99.0567 59.2674L91.1159 60.3974L89.6758 49.9401Z" fill="#1A3445"/>
<path d="M78.4495 46.3353L87.1551 52.0414L88.55 61.3687L80.6091 62.4988L78.4495 46.3353Z" fill="#8EADC1"/>
<path d="M99.3126 39.5812L106.067 32.6766L110.001 58.1264L102.06 59.2564L99.3126 39.5812Z" fill="#3E637B"/>
<circle cx="120.777" cy="68.6997" r="19.2125" fill="url(#paint3_linear_429_784)" stroke="#FFA914" stroke-width="3.60235"/>
<path d="M137.542 81.758L135.29 79.5521L130.878 84.0552L133.13 86.2611L137.542 81.758ZM155.344 108.025C156.588 109.244 158.583 109.223 159.802 107.98C161.02 106.736 161 104.74 159.756 103.522L155.344 108.025ZM133.13 86.2611L155.344 108.025L159.756 103.522L137.542 81.758L133.13 86.2611Z" fill="#FFA914"/>
<circle cx="79.0494" cy="87.0117" r="8.10527" fill="#1A3445" stroke="#57809A" stroke-width="1.20078"/>
<circle cx="82.0513" cy="108.025" r="7.50488" fill="#1A3445"/>
<path d="M75.7477 87.3119L78.1492 89.113L82.2018 83.1091" stroke="#3DC653" stroke-width="1.50098" stroke-linecap="round"/>
<path d="M78.7495 109.226L81.1511 111.027L85.2037 105.023" stroke="#3DC653" stroke-width="1.50098" stroke-linecap="round"/>
<defs>
<linearGradient id="paint0_linear_429_784" x1="116.274" y1="0.255642" x2="116.274" y2="115.531" gradientUnits="userSpaceOnUse">
<stop stop-color="#0AA5FF" stop-opacity="0.1"/>
<stop offset="1" stop-color="#47C6FF" stop-opacity="0"/>
</linearGradient>
<linearGradient id="paint1_linear_429_784" x1="138.188" y1="59.0935" x2="138.188" y2="132.942" gradientUnits="userSpaceOnUse">
<stop stop-color="#0AA5FF" stop-opacity="0.1"/>
<stop offset="1" stop-color="#47C6FF" stop-opacity="0"/>
</linearGradient>
<linearGradient id="paint2_linear_429_784" x1="84.7537" y1="47.0857" x2="84.7537" y2="120.934" gradientUnits="userSpaceOnUse">
<stop stop-color="#0AA5FF" stop-opacity="0.1"/>
<stop offset="1" stop-color="#47C6FF" stop-opacity="0"/>
</linearGradient>
<linearGradient id="paint3_linear_429_784" x1="120.777" y1="51.2883" x2="120.777" y2="86.111" gradientUnits="userSpaceOnUse">
<stop stop-color="#0AA5FF" stop-opacity="0.1"/>
<stop offset="1" stop-color="#47C6FF" stop-opacity="0"/>
</linearGradient>
</defs>
</svg>
