<svg width="22" height="20" viewBox="0 0 22 20" fill="none" xmlns="http://www.w3.org/2000/svg">
<path fill-rule="evenodd" clip-rule="evenodd" d="M19.0899 8.59999C19.0899 8.04999 19.5399 7.59999 20.0899 7.59999L20.0799 7.58999C20.6299 7.58999 21.0799 8.03999 21.0799 8.58999V13.48C21.0799 14.68 20.0999 15.66 18.8999 15.66H11.9999V17.76H15.5399C16.0899 17.76 16.5399 18.21 16.5399 18.76C16.5399 19.31 16.0899 19.76 15.5399 19.76H6.45992C5.90992 19.76 5.45992 19.31 5.45992 18.76C5.45992 18.21 5.90992 17.76 6.45992 17.76H9.99992V15.66H3.09992C1.89992 15.66 0.919922 14.68 0.919922 13.48V2.41999C0.919922 1.21999 1.89992 0.23999 3.09992 0.23999H15.1599C15.7099 0.23999 16.1599 0.68999 16.1599 1.23999C16.1599 1.78999 15.7099 2.23999 15.1599 2.23999H3.09992C2.99992 2.23999 2.91992 2.31999 2.91992 2.41999V13.49C2.91992 13.59 2.99992 13.67 3.09992 13.67H18.9099C19.0099 13.67 19.0899 13.59 19.0899 13.49V8.59999ZM9.80992 4.59999C10.1099 4.57999 10.3699 4.67999 10.5799 4.86999L10.5899 4.87999L13.4999 7.63999L18.2599 2.63999C18.6399 2.23999 19.2699 2.22999 19.6699 2.60999C20.0699 2.98999 20.0799 3.61999 19.6999 4.01999L14.2499 9.73999C13.8699 10.14 13.2399 10.16 12.8399 9.77999L10.0099 7.08999L7.95992 9.74999C7.76992 10.01 7.46992 10.14 7.16992 10.14C6.95992 10.14 6.73992 10.07 6.55992 9.92999C6.12992 9.59999 6.03992 8.96999 6.37992 8.52999L9.09992 4.98999C9.26992 4.75999 9.52992 4.61999 9.80992 4.59999Z" fill="#8C8C8C"/>
</svg>
