<svg width="115" height="22" viewBox="0 0 115 22" fill="none" xmlns="http://www.w3.org/2000/svg">
<path d="M7.86 16.14C6.55333 16.14 5.35333 15.8333 4.26 15.22C3.16667 14.6067 2.3 13.76 1.66 12.68C1.02 11.5867 0.7 10.3533 0.7 8.98C0.7 7.62 1.02 6.4 1.66 5.32C2.3 4.22667 3.16667 3.37333 4.26 2.76C5.35333 2.14667 6.55333 1.84 7.86 1.84C9.18 1.84 10.38 2.14667 11.46 2.76C12.5533 3.37333 13.4133 4.22667 14.04 5.32C14.68 6.4 15 7.62 15 8.98C15 10.3533 14.68 11.5867 14.04 12.68C13.4133 13.76 12.5533 14.6067 11.46 15.22C10.3667 15.8333 9.16667 16.14 7.86 16.14ZM7.86 13.64C8.7 13.64 9.44 13.4533 10.08 13.08C10.72 12.6933 11.22 12.1467 11.58 11.44C11.94 10.7333 12.12 9.91333 12.12 8.98C12.12 8.04667 11.94 7.23333 11.58 6.54C11.22 5.83333 10.72 5.29333 10.08 4.92C9.44 4.54667 8.7 4.36 7.86 4.36C7.02 4.36 6.27333 4.54667 5.62 4.92C4.98 5.29333 4.48 5.83333 4.12 6.54C3.76 7.23333 3.58 8.04667 3.58 8.98C3.58 9.91333 3.76 10.7333 4.12 11.44C4.48 12.1467 4.98 12.6933 5.62 13.08C6.27333 13.4533 7.02 13.64 7.86 13.64ZM19.8831 6.64C20.2431 6.05333 20.7098 5.59333 21.2831 5.26C21.8698 4.92667 22.5365 4.76 23.2831 4.76V7.7H22.5431C21.6631 7.7 20.9965 7.90667 20.5431 8.32C20.1031 8.73333 19.8831 9.45333 19.8831 10.48V16H17.0831V4.92H19.8831V6.64ZM24.4491 10.42C24.4491 9.3 24.6691 8.30667 25.1091 7.44C25.5624 6.57333 26.1757 5.90667 26.9491 5.44C27.7224 4.97333 28.5824 4.74 29.5291 4.74C30.2491 4.74 30.9357 4.9 31.5891 5.22C32.2424 5.52667 32.7624 5.94 33.1491 6.46V1.2H35.9891V16H33.1491V14.36C32.8024 14.9067 32.3157 15.3467 31.6891 15.68C31.0624 16.0133 30.3357 16.18 29.5091 16.18C28.5757 16.18 27.7224 15.94 26.9491 15.46C26.1757 14.98 25.5624 14.3067 25.1091 13.44C24.6691 12.56 24.4491 11.5533 24.4491 10.42ZM33.1691 10.46C33.1691 9.78 33.0357 9.2 32.7691 8.72C32.5024 8.22667 32.1424 7.85333 31.6891 7.6C31.2357 7.33333 30.7491 7.2 30.2291 7.2C29.7091 7.2 29.2291 7.32667 28.7891 7.58C28.3491 7.83333 27.9891 8.20667 27.7091 8.7C27.4424 9.18 27.3091 9.75333 27.3091 10.42C27.3091 11.0867 27.4424 11.6733 27.7091 12.18C27.9891 12.6733 28.3491 13.0533 28.7891 13.32C29.2424 13.5867 29.7224 13.72 30.2291 13.72C30.7491 13.72 31.2357 13.5933 31.6891 13.34C32.1424 13.0733 32.5024 12.7 32.7691 12.22C33.0357 11.7267 33.1691 11.14 33.1691 10.46ZM49.0238 10.22C49.0238 10.62 48.9971 10.98 48.9438 11.3H40.8438C40.9104 12.1 41.1904 12.7267 41.6838 13.18C42.1771 13.6333 42.7838 13.86 43.5038 13.86C44.5438 13.86 45.2838 13.4133 45.7238 12.52H48.7438C48.4238 13.5867 47.8104 14.4667 46.9038 15.16C45.9971 15.84 44.8838 16.18 43.5638 16.18C42.4971 16.18 41.5371 15.9467 40.6838 15.48C39.8438 15 39.1838 14.3267 38.7038 13.46C38.2371 12.5933 38.0037 11.5933 38.0037 10.46C38.0037 9.31333 38.2371 8.30667 38.7038 7.44C39.1704 6.57333 39.8238 5.90667 40.6638 5.44C41.5038 4.97333 42.4704 4.74 43.5638 4.74C44.6171 4.74 45.5571 4.96667 46.3838 5.42C47.2238 5.87333 47.8704 6.52 48.3238 7.36C48.7904 8.18667 49.0238 9.14 49.0238 10.22ZM46.1238 9.42C46.1104 8.7 45.8504 8.12667 45.3438 7.7C44.8371 7.26 44.2171 7.04 43.4838 7.04C42.7904 7.04 42.2038 7.25333 41.7238 7.68C41.2571 8.09333 40.9704 8.67333 40.8638 9.42H46.1238ZM53.8675 6.64C54.2275 6.05333 54.6942 5.59333 55.2675 5.26C55.8542 4.92667 56.5208 4.76 57.2675 4.76V7.7H56.5275C55.6475 7.7 54.9808 7.90667 54.5275 8.32C54.0875 8.73333 53.8675 9.45333 53.8675 10.48V16H51.0675V4.92H53.8675V6.64ZM71.1191 16L68.0391 10.56H66.7191V16H63.9191V2.04H69.1591C70.2391 2.04 71.1591 2.23333 71.9191 2.62C72.6791 2.99333 73.2457 3.50667 73.6191 4.16C74.0057 4.8 74.1991 5.52 74.1991 6.32C74.1991 7.24 73.9324 8.07333 73.3991 8.82C72.8657 9.55333 72.0724 10.06 71.0191 10.34L74.3591 16H71.1191ZM66.7191 8.46H69.0591C69.8191 8.46 70.3857 8.28 70.7591 7.92C71.1324 7.54667 71.3191 7.03333 71.3191 6.38C71.3191 5.74 71.1324 5.24667 70.7591 4.9C70.3857 4.54 69.8191 4.36 69.0591 4.36H66.7191V8.46ZM78.1516 3.6C77.6582 3.6 77.2449 3.44667 76.9116 3.14C76.5916 2.82 76.4316 2.42667 76.4316 1.96C76.4316 1.49333 76.5916 1.10667 76.9116 0.799999C77.2449 0.479999 77.6582 0.319999 78.1516 0.319999C78.6449 0.319999 79.0516 0.479999 79.3716 0.799999C79.7049 1.10667 79.8716 1.49333 79.8716 1.96C79.8716 2.42667 79.7049 2.82 79.3716 3.14C79.0516 3.44667 78.6449 3.6 78.1516 3.6ZM79.5316 4.92V16H76.7316V4.92H79.5316ZM86.638 4.74C87.4646 4.74 88.1913 4.90667 88.818 5.24C89.4446 5.56 89.938 5.98 90.298 6.5V4.92H93.118V16.08C93.118 17.1067 92.9113 18.02 92.498 18.82C92.0846 19.6333 91.4646 20.2733 90.638 20.74C89.8113 21.22 88.8113 21.46 87.638 21.46C86.0646 21.46 84.7713 21.0933 83.758 20.36C82.758 19.6267 82.1913 18.6267 82.058 17.36H84.838C84.9846 17.8667 85.298 18.2667 85.778 18.56C86.2713 18.8667 86.8646 19.02 87.558 19.02C88.3713 19.02 89.0313 18.7733 89.538 18.28C90.0446 17.8 90.298 17.0667 90.298 16.08V14.36C89.938 14.88 89.438 15.3133 88.798 15.66C88.1713 16.0067 87.4513 16.18 86.638 16.18C85.7046 16.18 84.8513 15.94 84.078 15.46C83.3046 14.98 82.6913 14.3067 82.238 13.44C81.798 12.56 81.578 11.5533 81.578 10.42C81.578 9.3 81.798 8.30667 82.238 7.44C82.6913 6.57333 83.298 5.90667 84.058 5.44C84.8313 4.97333 85.6913 4.74 86.638 4.74ZM90.298 10.46C90.298 9.78 90.1646 9.2 89.898 8.72C89.6313 8.22667 89.2713 7.85333 88.818 7.6C88.3646 7.33333 87.878 7.2 87.358 7.2C86.838 7.2 86.358 7.32667 85.918 7.58C85.478 7.83333 85.118 8.20667 84.838 8.7C84.5713 9.18 84.438 9.75333 84.438 10.42C84.438 11.0867 84.5713 11.6733 84.838 12.18C85.118 12.6733 85.478 13.0533 85.918 13.32C86.3713 13.5867 86.8513 13.72 87.358 13.72C87.878 13.72 88.3646 13.5933 88.818 13.34C89.2713 13.0733 89.6313 12.7 89.898 12.22C90.1646 11.7267 90.298 11.14 90.298 10.46ZM102.093 4.76C102.933 4.76 103.679 4.94667 104.333 5.32C104.986 5.68 105.493 6.22 105.853 6.94C106.226 7.64667 106.413 8.5 106.413 9.5V16H103.613V9.88C103.613 9 103.393 8.32667 102.953 7.86C102.513 7.38 101.913 7.14 101.153 7.14C100.379 7.14 99.766 7.38 99.3127 7.86C98.8727 8.32667 98.6527 9 98.6527 9.88V16H95.8527V1.2H98.6527V6.3C99.0127 5.82 99.4927 5.44667 100.093 5.18C100.693 4.9 101.359 4.76 102.093 4.76ZM112.335 7.22V12.58C112.335 12.9533 112.422 13.2267 112.595 13.4C112.782 13.56 113.089 13.64 113.515 13.64H114.815V16H113.055C110.695 16 109.515 14.8533 109.515 12.56V7.22H108.195V4.92H109.515V2.18H112.335V4.92H114.815V7.22H112.335Z" fill="white"/>
</svg>
