<svg width="70" height="70" viewBox="0 0 70 70" fill="none" xmlns="http://www.w3.org/2000/svg">
<g clip-path="url(#clip0_615_77)">
<path d="M6.45312 35.0656C6.45312 50.8375 19.2281 63.6125 35 63.6125C50.7719 63.6125 63.5469 50.8375 63.5469 35.0656C63.5469 19.2938 50.7719 6.51875 35 6.51875C19.2281 6.51875 6.45312 19.3156 6.45312 35.0656ZM39.6375 52.6313C39.6375 53.2656 39.0906 53.7906 38.4125 53.7906H19.4688C18.7906 53.7906 18.2438 53.2656 18.2438 52.6313V37.8C18.2438 37.1656 18.7906 36.6406 19.4688 36.6406H22.8813V45.5219L28.9406 40.0313L35 45.5219V36.6406H38.4125C39.0906 36.6406 39.6375 37.1656 39.6375 37.8V52.6313ZM55.475 35C55.475 30.5594 52.4781 26.6656 48.1688 25.5281C47.4469 25.3313 47.0094 24.5875 47.2062 23.8656C47.4031 23.1438 48.1469 22.7063 48.8687 22.9031C54.3594 24.3469 58.2094 29.3344 58.2094 35.0219C58.2094 40.7094 54.5344 45.4344 49.2406 47.0094V50.05L44.4281 45.2375L49.2406 40.425V44.1C52.9594 42.6344 55.475 39.0688 55.475 35ZM39.6375 18.4844V33.3156C39.6375 33.95 39.0906 34.475 38.4125 34.475H19.4688C18.7906 34.475 18.2438 33.95 18.2438 33.3156V18.4844C18.2438 17.85 18.7906 17.325 19.4688 17.325H22.8813V26.2063L28.9406 20.7156L35 26.2063V17.325H38.4125C39.0906 17.325 39.6375 17.85 39.6375 18.4844Z" fill="#F7CC45"/>
<path d="M67.1781 21.1969L65.1656 22.0719C66.8719 26.075 67.7688 30.3188 67.8125 34.6937C67.9 43.4656 64.5531 51.7344 58.4281 57.9906C52.2812 64.2469 44.0781 67.7469 35.3281 67.8125C26.5781 67.9 18.2875 64.5531 12.0312 58.4281C5.775 52.2812 2.275 44.0781 2.20937 35.3281C2.12187 26.5562 5.46875 18.2875 11.5938 12.0312C17.7188 5.775 25.9219 2.275 34.6937 2.1875C39.3094 2.14375 43.7719 3.04063 47.9719 4.83438L48.8469 2.82188C44.3406 0.91875 39.5938 -0.0437494 34.6719 6.08736e-07C15.3563 0.196876 -0.175 16.0344 -3.80445e-07 35.3281C0.175 53.0469 13.5625 67.6156 30.6906 69.7375C32.2219 69.9344 33.775 70.0219 35.3281 70C44.6687 69.9125 53.4406 66.1937 59.9813 59.5219C66.5219 52.85 70.0875 44.0344 70 34.6719C69.9562 29.9906 68.9937 25.4625 67.1781 21.1969Z" fill="#F7CC45"/>
</g>
<defs>
<clipPath id="clip0_615_77">
<rect width="70" height="70" fill="white"/>
</clipPath>
</defs>
</svg>
