<svg width="26" height="20" viewBox="0 0 26 20" fill="none" xmlns="http://www.w3.org/2000/svg">
<path fill-rule="evenodd" clip-rule="evenodd" d="M14.0001 9.14001V1.64001C14.0001 1.09001 13.5501 0.640015 13.0001 0.640015C12.4501 0.640015 12.0001 1.09001 12.0001 1.64001V9.14001C10.2701 9.59001 8.9901 11.14 8.9901 13.01C8.9901 14.88 10.2701 16.43 12.0001 16.88V18.29C12.0001 18.84 12.4501 19.29 13.0001 19.29C13.5501 19.29 14.0001 18.84 14.0001 18.29V16.88C15.7301 16.43 17.0101 14.88 17.0101 13.01C17.0101 11.14 15.7301 9.59001 14.0001 9.14001ZM13.0601 15.01C13.0601 15.01 13.0201 15 13.0001 15C12.9901 15 12.9801 15.0025 12.9701 15.005C12.9601 15.0075 12.9501 15.01 12.9401 15.01C11.8601 14.98 10.9901 14.09 10.9901 13.01C10.9901 11.93 11.8901 11 13.0001 11C14.1101 11 15.0101 11.9 15.0101 13.01C15.0101 14.12 14.1401 14.98 13.0601 15.01ZM5.6501 4.76001V1.94001C5.6501 1.39001 5.2001 0.940015 4.6501 0.940015C4.1001 0.940015 3.6501 1.39001 3.6501 1.94001V4.74001C1.9001 5.17001 0.600098 6.74001 0.600098 8.62001C0.600098 10.5 1.8801 12.04 3.6101 12.49V18.36C3.6101 18.91 4.0601 19.36 4.6101 19.36C5.1601 19.36 5.6101 18.91 5.6101 18.36V12.49C7.3401 12.04 8.6201 10.49 8.6201 8.62001C8.6201 6.75001 7.3501 5.22001 5.6501 4.76001ZM4.6101 10.64C3.5001 10.64 2.6001 9.74001 2.6001 8.63001C2.6001 7.52001 3.5001 6.62001 4.6101 6.62001C5.7201 6.62001 6.6201 7.52001 6.6201 8.63001C6.6201 9.74001 5.7201 10.64 4.6101 10.64ZM22.3901 2.14001C24.1201 2.59001 25.4001 4.15001 25.4001 6.01001C25.4001 7.88001 24.1201 9.43001 22.3901 9.88001V18.29C22.3901 18.84 21.9401 19.29 21.3901 19.29C20.8401 19.29 20.3901 18.84 20.3901 18.29V9.88001C18.6601 9.43001 17.3801 7.88001 17.3801 6.01001C17.3801 4.14001 18.6601 2.59001 20.3901 2.14001V1.64001C20.3901 1.09001 20.8401 0.640015 21.3901 0.640015C21.9401 0.640015 22.3901 1.09001 22.3901 1.64001V2.14001ZM21.3901 7.98001C21.4401 7.98001 21.5301 8.01001 21.5301 8.01001C22.5701 7.93001 23.4001 7.12001 23.4001 6.01001C23.4001 4.90001 22.5001 4.00001 21.3901 4.00001C20.2801 4.00001 19.3801 4.94001 19.3801 6.01001C19.3801 7.08001 20.2101 7.94001 21.2501 8.01001C21.2681 8.00641 21.2849 8.0015 21.3012 7.9967C21.3302 7.98819 21.3581 7.98001 21.3901 7.98001Z" fill="#8C8C8C"/>
</svg>
