<svg width="1728" height="1117" viewBox="0 0 1728 1117" fill="none" xmlns="http://www.w3.org/2000/svg">
<rect width="1728" height="1117" fill="#1E1E1E"/>
<rect width="1728" height="1117" fill="#211111"/>
<path d="M783.86 437.934C782.553 437.934 781.353 437.628 780.26 437.014C779.167 436.401 778.3 435.554 777.66 434.474C777.02 433.381 776.7 432.148 776.7 430.774C776.7 429.414 777.02 428.194 777.66 427.114C778.3 426.021 779.167 425.168 780.26 424.554C781.353 423.941 782.553 423.634 783.86 423.634C785.18 423.634 786.38 423.941 787.46 424.554C788.553 425.168 789.413 426.021 790.04 427.114C790.68 428.194 791 429.414 791 430.774C791 432.148 790.68 433.381 790.04 434.474C789.413 435.554 788.553 436.401 787.46 437.014C786.367 437.628 785.167 437.934 783.86 437.934ZM783.86 435.434C784.7 435.434 785.44 435.248 786.08 434.874C786.72 434.488 787.22 433.941 787.58 433.234C787.94 432.528 788.12 431.708 788.12 430.774C788.12 429.841 787.94 429.028 787.58 428.334C787.22 427.628 786.72 427.088 786.08 426.714C785.44 426.341 784.7 426.154 783.86 426.154C783.02 426.154 782.273 426.341 781.62 426.714C780.98 427.088 780.48 427.628 780.12 428.334C779.76 429.028 779.58 429.841 779.58 430.774C779.58 431.708 779.76 432.528 780.12 433.234C780.48 433.941 780.98 434.488 781.62 434.874C782.273 435.248 783.02 435.434 783.86 435.434ZM795.883 428.434C796.243 427.848 796.71 427.388 797.283 427.054C797.87 426.721 798.537 426.554 799.283 426.554V429.494H798.543C797.663 429.494 796.997 429.701 796.543 430.114C796.103 430.528 795.883 431.248 795.883 432.274V437.794H793.083V426.714H795.883V428.434ZM800.449 432.214C800.449 431.094 800.669 430.101 801.109 429.234C801.562 428.368 802.176 427.701 802.949 427.234C803.722 426.768 804.582 426.534 805.529 426.534C806.249 426.534 806.936 426.694 807.589 427.014C808.242 427.321 808.762 427.734 809.149 428.254V422.994H811.989V437.794H809.149V436.154C808.802 436.701 808.316 437.141 807.689 437.474C807.062 437.808 806.336 437.974 805.509 437.974C804.576 437.974 803.722 437.734 802.949 437.254C802.176 436.774 801.562 436.101 801.109 435.234C800.669 434.354 800.449 433.348 800.449 432.214ZM809.169 432.254C809.169 431.574 809.036 430.994 808.769 430.514C808.502 430.021 808.142 429.648 807.689 429.394C807.236 429.128 806.749 428.994 806.229 428.994C805.709 428.994 805.229 429.121 804.789 429.374C804.349 429.628 803.989 430.001 803.709 430.494C803.442 430.974 803.309 431.548 803.309 432.214C803.309 432.881 803.442 433.468 803.709 433.974C803.989 434.468 804.349 434.848 804.789 435.114C805.242 435.381 805.722 435.514 806.229 435.514C806.749 435.514 807.236 435.388 807.689 435.134C808.142 434.868 808.502 434.494 808.769 434.014C809.036 433.521 809.169 432.934 809.169 432.254ZM825.024 432.014C825.024 432.414 824.997 432.774 824.944 433.094H816.844C816.91 433.894 817.19 434.521 817.684 434.974C818.177 435.428 818.784 435.654 819.504 435.654C820.544 435.654 821.284 435.208 821.724 434.314H824.744C824.424 435.381 823.81 436.261 822.904 436.954C821.997 437.634 820.884 437.974 819.564 437.974C818.497 437.974 817.537 437.741 816.684 437.274C815.844 436.794 815.184 436.121 814.704 435.254C814.237 434.388 814.004 433.388 814.004 432.254C814.004 431.108 814.237 430.101 814.704 429.234C815.17 428.368 815.824 427.701 816.664 427.234C817.504 426.768 818.47 426.534 819.564 426.534C820.617 426.534 821.557 426.761 822.384 427.214C823.224 427.668 823.87 428.314 824.324 429.154C824.79 429.981 825.024 430.934 825.024 432.014ZM822.124 431.214C822.11 430.494 821.85 429.921 821.344 429.494C820.837 429.054 820.217 428.834 819.484 428.834C818.79 428.834 818.204 429.048 817.724 429.474C817.257 429.888 816.97 430.468 816.864 431.214H822.124ZM829.868 428.434C830.228 427.848 830.694 427.388 831.268 427.054C831.854 426.721 832.521 426.554 833.268 426.554V429.494H832.528C831.648 429.494 830.981 429.701 830.528 430.114C830.088 430.528 829.868 431.248 829.868 432.274V437.794H827.068V426.714H829.868V428.434ZM847.119 437.794L844.039 432.354H842.719V437.794H839.919V423.834H845.159C846.239 423.834 847.159 424.028 847.919 424.414C848.679 424.788 849.246 425.301 849.619 425.954C850.006 426.594 850.199 427.314 850.199 428.114C850.199 429.034 849.932 429.868 849.399 430.614C848.866 431.348 848.072 431.854 847.019 432.134L850.359 437.794H847.119ZM842.719 430.254H845.059C845.819 430.254 846.386 430.074 846.759 429.714C847.132 429.341 847.319 428.828 847.319 428.174C847.319 427.534 847.132 427.041 846.759 426.694C846.386 426.334 845.819 426.154 845.059 426.154H842.719V430.254ZM854.152 425.394C853.658 425.394 853.245 425.241 852.912 424.934C852.592 424.614 852.432 424.221 852.432 423.754C852.432 423.288 852.592 422.901 852.912 422.594C853.245 422.274 853.658 422.114 854.152 422.114C854.645 422.114 855.052 422.274 855.372 422.594C855.705 422.901 855.872 423.288 855.872 423.754C855.872 424.221 855.705 424.614 855.372 424.934C855.052 425.241 854.645 425.394 854.152 425.394ZM855.532 426.714V437.794H852.732V426.714H855.532ZM862.638 426.534C863.465 426.534 864.191 426.701 864.818 427.034C865.445 427.354 865.938 427.774 866.298 428.294V426.714H869.118V437.874C869.118 438.901 868.911 439.814 868.498 440.614C868.085 441.428 867.465 442.068 866.638 442.534C865.811 443.014 864.811 443.254 863.638 443.254C862.065 443.254 860.771 442.888 859.758 442.154C858.758 441.421 858.191 440.421 858.058 439.154H860.838C860.985 439.661 861.298 440.061 861.778 440.354C862.271 440.661 862.865 440.814 863.558 440.814C864.371 440.814 865.031 440.568 865.538 440.074C866.045 439.594 866.298 438.861 866.298 437.874V436.154C865.938 436.674 865.438 437.108 864.798 437.454C864.171 437.801 863.451 437.974 862.638 437.974C861.705 437.974 860.851 437.734 860.078 437.254C859.305 436.774 858.691 436.101 858.238 435.234C857.798 434.354 857.578 433.348 857.578 432.214C857.578 431.094 857.798 430.101 858.238 429.234C858.691 428.368 859.298 427.701 860.058 427.234C860.831 426.768 861.691 426.534 862.638 426.534ZM866.298 432.254C866.298 431.574 866.165 430.994 865.898 430.514C865.631 430.021 865.271 429.648 864.818 429.394C864.365 429.128 863.878 428.994 863.358 428.994C862.838 428.994 862.358 429.121 861.918 429.374C861.478 429.628 861.118 430.001 860.838 430.494C860.571 430.974 860.438 431.548 860.438 432.214C860.438 432.881 860.571 433.468 860.838 433.974C861.118 434.468 861.478 434.848 861.918 435.114C862.371 435.381 862.851 435.514 863.358 435.514C863.878 435.514 864.365 435.388 864.818 435.134C865.271 434.868 865.631 434.494 865.898 434.014C866.165 433.521 866.298 432.934 866.298 432.254ZM878.093 426.554C878.933 426.554 879.679 426.741 880.333 427.114C880.986 427.474 881.493 428.014 881.853 428.734C882.226 429.441 882.413 430.294 882.413 431.294V437.794H879.613V431.674C879.613 430.794 879.393 430.121 878.953 429.654C878.513 429.174 877.913 428.934 877.153 428.934C876.379 428.934 875.766 429.174 875.313 429.654C874.873 430.121 874.653 430.794 874.653 431.674V437.794H871.853V422.994H874.653V428.094C875.013 427.614 875.493 427.241 876.093 426.974C876.693 426.694 877.359 426.554 878.093 426.554ZM888.335 429.014V434.374C888.335 434.748 888.422 435.021 888.595 435.194C888.782 435.354 889.089 435.434 889.515 435.434H890.815V437.794H889.055C886.695 437.794 885.515 436.648 885.515 434.354V429.014H884.195V426.714H885.515V423.974H888.335V426.714H890.815V429.014H888.335Z" fill="white"/>
<path d="M754.982 417H728.018C721.933 417 717 422.102 717 428.396V456.283C717 462.577 721.933 467.679 728.018 467.679H754.982C761.067 467.679 766 462.577 766 456.283V428.396C766 422.102 761.067 417 754.982 417Z" fill="#F7CC45" fill-opacity="0.2"/>
<path fill-rule="evenodd" clip-rule="evenodd" d="M732.976 436.919C734.059 436.919 735.006 436.28 735.525 435.326H739.274C739.793 436.28 740.74 436.919 741.823 436.919C742.905 436.919 743.853 436.28 744.371 435.326H748.121C748.64 436.28 749.587 436.919 750.67 436.919C752.31 436.919 753.639 435.453 753.639 433.645C753.639 431.837 752.31 430.371 750.67 430.371C749.532 430.371 748.544 431.077 748.045 432.112H744.447C743.949 431.077 742.961 430.371 741.823 430.371C740.685 430.371 739.697 431.077 739.198 432.112H735.601C735.102 431.077 734.114 430.371 732.976 430.371C731.336 430.371 730.007 431.837 730.007 433.645C730.007 435.453 731.336 436.919 732.976 436.919ZM735.525 445.144C735.006 446.099 734.059 446.737 732.976 446.737C731.336 446.737 730.007 445.272 730.007 443.463C730.007 441.655 731.336 440.19 732.976 440.19C734.114 440.19 735.102 440.895 735.601 441.931H739.198C739.697 440.895 740.685 440.19 741.823 440.19C743.463 440.19 744.792 441.655 744.792 443.463C744.792 445.272 743.463 446.737 741.823 446.737C740.74 446.737 739.793 446.099 739.274 445.144H735.525ZM735.945 453.282C735.945 455.09 734.616 456.556 732.976 456.556C731.336 456.556 730.007 455.09 730.007 453.282C730.007 451.474 731.336 450.008 732.976 450.008C734.616 450.008 735.945 451.474 735.945 453.282Z" fill="#F7CC46"/>
<path d="M778.268 455.166C778.5 454.846 778.816 454.586 779.216 454.386C779.624 454.178 780.076 454.074 780.572 454.074C781.156 454.074 781.684 454.214 782.156 454.494C782.628 454.774 783 455.174 783.272 455.694C783.544 456.206 783.68 456.794 783.68 457.458C783.68 458.122 783.544 458.718 783.272 459.246C783 459.766 782.624 460.174 782.144 460.47C781.672 460.758 781.148 460.902 780.572 460.902C780.06 460.902 779.604 460.802 779.204 460.602C778.812 460.402 778.5 460.146 778.268 459.834V460.794H776.9V451.914H778.268V455.166ZM782.288 457.458C782.288 457.002 782.192 456.61 782 456.282C781.816 455.946 781.568 455.694 781.256 455.526C780.952 455.35 780.624 455.262 780.272 455.262C779.928 455.262 779.6 455.35 779.288 455.526C778.984 455.702 778.736 455.958 778.544 456.294C778.36 456.63 778.268 457.026 778.268 457.482C778.268 457.938 778.36 458.338 778.544 458.682C778.736 459.018 778.984 459.274 779.288 459.45C779.6 459.626 779.928 459.714 780.272 459.714C780.624 459.714 780.952 459.626 781.256 459.45C781.568 459.266 781.816 459.002 782 458.658C782.192 458.314 782.288 457.914 782.288 457.458ZM790.985 454.182L786.929 463.902H785.513L786.857 460.686L784.253 454.182H785.777L787.637 459.222L789.569 454.182H790.985ZM800.162 459.09H796.67L796.07 460.794H794.642L797.63 452.442H799.214L802.202 460.794H800.762L800.162 459.09ZM799.778 457.974L798.422 454.098L797.054 457.974H799.778ZM804.87 451.914V460.794H803.502V451.914H804.87ZM809.33 454.074C809.842 454.074 810.294 454.178 810.686 454.386C811.086 454.586 811.398 454.838 811.622 455.142V454.182H813.002V460.902C813.002 461.51 812.874 462.05 812.618 462.522C812.362 463.002 811.99 463.378 811.502 463.65C811.022 463.922 810.446 464.058 809.774 464.058C808.878 464.058 808.134 463.846 807.542 463.422C806.95 463.006 806.614 462.438 806.534 461.718H807.89C807.994 462.062 808.214 462.338 808.55 462.546C808.894 462.762 809.302 462.87 809.774 462.87C810.326 462.87 810.77 462.702 811.106 462.366C811.45 462.03 811.622 461.542 811.622 460.902V459.798C811.39 460.11 811.074 460.374 810.674 460.59C810.282 460.798 809.834 460.902 809.33 460.902C808.754 460.902 808.226 460.758 807.746 460.47C807.274 460.174 806.898 459.766 806.618 459.246C806.346 458.718 806.21 458.122 806.21 457.458C806.21 456.794 806.346 456.206 806.618 455.694C806.898 455.182 807.274 454.786 807.746 454.506C808.226 454.218 808.754 454.074 809.33 454.074ZM811.622 457.482C811.622 457.026 811.526 456.63 811.334 456.294C811.15 455.958 810.906 455.702 810.602 455.526C810.298 455.35 809.97 455.262 809.618 455.262C809.266 455.262 808.938 455.35 808.634 455.526C808.33 455.694 808.082 455.946 807.89 456.282C807.706 456.61 807.614 457.002 807.614 457.458C807.614 457.914 807.706 458.314 807.89 458.658C808.082 459.002 808.33 459.266 808.634 459.45C808.946 459.626 809.274 459.714 809.618 459.714C809.97 459.714 810.298 459.626 810.602 459.45C810.906 459.274 811.15 459.018 811.334 458.682C811.526 458.338 811.622 457.938 811.622 457.482ZM817.666 460.902C817.042 460.902 816.478 460.762 815.974 460.482C815.47 460.194 815.074 459.794 814.786 459.282C814.498 458.762 814.354 458.162 814.354 457.482C814.354 456.81 814.502 456.214 814.798 455.694C815.094 455.174 815.498 454.774 816.01 454.494C816.522 454.214 817.094 454.074 817.726 454.074C818.358 454.074 818.93 454.214 819.442 454.494C819.954 454.774 820.358 455.174 820.654 455.694C820.95 456.214 821.098 456.81 821.098 457.482C821.098 458.154 820.946 458.75 820.642 459.27C820.338 459.79 819.922 460.194 819.394 460.482C818.874 460.762 818.298 460.902 817.666 460.902ZM817.666 459.714C818.018 459.714 818.346 459.63 818.65 459.462C818.962 459.294 819.214 459.042 819.406 458.706C819.598 458.37 819.694 457.962 819.694 457.482C819.694 457.002 819.602 456.598 819.418 456.27C819.234 455.934 818.99 455.682 818.686 455.514C818.382 455.346 818.054 455.262 817.702 455.262C817.35 455.262 817.022 455.346 816.718 455.514C816.422 455.682 816.186 455.934 816.01 456.27C815.834 456.598 815.746 457.002 815.746 457.482C815.746 458.194 815.926 458.746 816.286 459.138C816.654 459.522 817.114 459.714 817.666 459.714ZM825.787 454.074C826.307 454.074 826.771 454.182 827.179 454.398C827.595 454.614 827.919 454.934 828.151 455.358C828.383 455.782 828.499 456.294 828.499 456.894V460.794H827.143V457.098C827.143 456.506 826.995 456.054 826.699 455.742C826.403 455.422 825.999 455.262 825.487 455.262C824.975 455.262 824.567 455.422 824.263 455.742C823.967 456.054 823.819 456.506 823.819 457.098V460.794H822.451V454.182H823.819V454.938C824.043 454.666 824.327 454.454 824.671 454.302C825.023 454.15 825.395 454.074 825.787 454.074ZM833.112 460.902C832.488 460.902 831.924 460.762 831.42 460.482C830.916 460.194 830.52 459.794 830.232 459.282C829.944 458.762 829.8 458.162 829.8 457.482C829.8 456.81 829.948 456.214 830.244 455.694C830.54 455.174 830.944 454.774 831.456 454.494C831.968 454.214 832.54 454.074 833.172 454.074C833.804 454.074 834.376 454.214 834.888 454.494C835.4 454.774 835.804 455.174 836.1 455.694C836.396 456.214 836.544 456.81 836.544 457.482C836.544 458.154 836.392 458.75 836.088 459.27C835.784 459.79 835.368 460.194 834.84 460.482C834.32 460.762 833.744 460.902 833.112 460.902ZM833.112 459.714C833.464 459.714 833.792 459.63 834.096 459.462C834.408 459.294 834.66 459.042 834.852 458.706C835.044 458.37 835.14 457.962 835.14 457.482C835.14 457.002 835.048 456.598 834.864 456.27C834.68 455.934 834.436 455.682 834.132 455.514C833.828 455.346 833.5 455.262 833.148 455.262C832.796 455.262 832.468 455.346 832.164 455.514C831.868 455.682 831.632 455.934 831.456 456.27C831.28 456.598 831.192 457.002 831.192 457.482C831.192 458.194 831.372 458.746 831.732 459.138C832.1 459.522 832.56 459.714 833.112 459.714ZM845.9 454.074C846.42 454.074 846.884 454.182 847.292 454.398C847.708 454.614 848.032 454.934 848.264 455.358C848.504 455.782 848.624 456.294 848.624 456.894V460.794H847.268V457.098C847.268 456.506 847.12 456.054 846.824 455.742C846.528 455.422 846.124 455.262 845.612 455.262C845.1 455.262 844.692 455.422 844.388 455.742C844.092 456.054 843.944 456.506 843.944 457.098V460.794H842.588V457.098C842.588 456.506 842.44 456.054 842.144 455.742C841.848 455.422 841.444 455.262 840.932 455.262C840.42 455.262 840.012 455.422 839.708 455.742C839.412 456.054 839.264 456.506 839.264 457.098V460.794H837.896V454.182H839.264V454.938C839.488 454.666 839.772 454.454 840.116 454.302C840.46 454.15 840.828 454.074 841.22 454.074C841.748 454.074 842.22 454.186 842.636 454.41C843.052 454.634 843.372 454.958 843.596 455.382C843.796 454.982 844.108 454.666 844.532 454.434C844.956 454.194 845.412 454.074 845.9 454.074ZM856.317 454.182L852.261 463.902H850.845L852.189 460.686L849.585 454.182H851.109L852.969 459.222L854.901 454.182H856.317Z" fill="#CCCCCC"/>
</svg>
