<svg width="20" height="20" viewBox="0 0 20 20" fill="none" xmlns="http://www.w3.org/2000/svg">
<path d="M12.9 11.2648C14.05 9.94484 14.78 8.06484 14.78 6.34484C14.78 3.24484 12.44 0.714844 9.56 0.714844C6.68 0.714844 4.34 3.24484 4.34 6.34484C4.34 8.12484 5.11 10.0648 6.32 11.3848C0.82 12.4448 0 16.0648 0 19.2848H2C2 16.1348 2.61 13.0648 9.91 13.0648C17.21 13.0648 17.82 16.1348 17.82 19.2848H19.82C19.82 15.9448 18.96 12.1748 12.9 11.2748V11.2648ZM9.55 2.71484C11.33 2.71484 12.77 4.34484 12.77 6.34484C12.77 8.34484 11.25 10.9748 9.55 10.9748C7.85 10.9748 6.33 8.38484 6.33 6.34484C6.33 4.30484 7.78 2.71484 9.55 2.71484Z" fill="#8C8C8C"/>
</svg>
